<svg xmlns="http://www.w3.org/2000/svg" width="140.4" height="141.9">
  <path d="M110 131l-45.8 10.2a33.1 33.1 0 0 1-35.7-15.5L4.6 85.1a33.2 33.2 0 0 1 3.7-38.8l31.1-35.1a33 33 0 0 1 38.1-8.4l43 18.7a33.1 33.1 0 0 1 19.8 33.6l-4.5 46.7A33.3 33.3 0 0 1 110 131z" fill="#232537"/>
  <path d="M52.8 90.8h13.4V70.4H53.7v-9.6h22.5v29.9h11.5v9.6H52.8v-9.5zm25.9-41.7a7.8 7.8 0 0 1-2.2 5.4 7.8 7.8 0 0 1-5.3 2.2 7.8 7.8 0 0 1-5.3-2.2 7.8 7.8 0 0 1-1.6-8.4c.4-.9.9-1.7 1.6-2.4a7.8 7.8 0 0 1 5.3-2.2 7.8 7.8 0 0 1 5.3 2.2 7.8 7.8 0 0 1 2.2 5.4z" fill="#fdcb25"/>
</svg>
