<svg xmlns="http://www.w3.org/2000/svg" xmlns:xlink="http://www.w3.org/1999/xlink" width="215.2" height="236.6">
  <style>
    .st0{fill:#232537}.st2{fill:#fdcb25}.st3{fill:#49e1c2}
  </style>
  <path class="st0" d="M108.2 132.6c-.2-46.5 2.1-100.8 0-111.2v-.9c.3-5.8.7-13-3.8-17.8-2.7-2.9-8.7-3.4-17.8-1.3-14.8 3.2-35.7 12.8-39.9 19-.9.1-2.2.4-3.9 1-6.4 2.3-9.7 7.1-9.3 13.7-.9.7-2.5 1.9-3.7 2.8l-3.6 2.7c-3.3 2.8-5.7 5.8-7.6 9.2-3.7 6.7-5.2 14.4-4.1 21.8v.2c-4.7 3.2-7.6 8.1-8 13.3-.3 3.2.4 6.9.8 9.5.2 1 .4 2.2.4 2.6-.1.6-1.3 2.2-2 3.1-.7.9-1.4 1.8-1.8 2.6-1.2 2.3-2.2 4.8-2.8 7.3-1.4 5.3-1.3 10.6.1 15.3.8 2.6 2 5.2 3.6 7.7.4.7.8 1.2 1.1 1.7.9 1.2.9 1.3.6 2.4-.3 1-.6 1.9-.9 2.8-.9 2.6-1.7 5-1.4 8.6.4 4.3 2.6 14.3 8.8 17.1-1.4 2.4-2.1 5.3-2.2 5.4-.8 3.4.1 6.4 1 9.2 1.8 5.5 4.8 9.7 10.2 14.4.1.1.4.4.5.4 0 .1 0 .5-.1.8-1.3 8.5 2 15.7 9.3 20.3 2.6 1.6 7.9 3.9 12.5 3 1 5.3 7.3 9.1 11.4 10.6 5.3 2 12.8 4.2 18.3 2 1.5 2.4 4.5 3.9 8.8 4.4 1.4.2 2.8.3 4.1.3 5.2 0 9.5-1.4 12.8-4.3 8.4-7.3 8.7-22.3 8.9-33.3v-.6c-.1-5.2-.2-33.3-.3-65.8z"/>
  <path d="M210.5 133.2c1.6-2.6 2.8-5.2 3.6-7.7 1.4-4.7 1.5-10 .1-15.3-.6-2.5-1.6-5-2.8-7.3-.4-.8-1.1-1.7-1.8-2.6-.7-.9-1.9-2.4-2-3.1 0-.3.2-1.6.4-2.6.5-2.6 1.1-6.3.8-9.5-.4-5.2-3.4-10.1-7.9-13.3v-.2c1-7.4-.4-15.2-4.1-21.8-1.9-3.4-4.4-6.4-7.6-9.2-.3-.3-1.9-1.5-3.5-2.7-1.2-.9-2.9-2.2-3.8-2.9.4-6.3-2.7-9.8-5.4-11.7-2.4-1.7-5.7-2.6-7.8-2.9-4.1-6.2-25.1-15.8-39.8-19.1-9.1-2.1-15.1-1.6-17.8 1.3-4.5 4.9-4.1 12.1-3.8 17.9v.9c.3 6.8.1 64.7 0 111.2-.1 32.5-.2 60.6-.1 65.8v.6c.2 11 .5 26 8.9 33.3 3.3 2.9 7.6 4.3 12.8 4.3 1.3 0 2.7-.1 4.1-.3 4.3-.6 7.3-2 8.8-4.4 5.5 2.2 12.9-.1 18.3-2 5.8-2.2 9.6-5.9 11-10.7 4.4 1 12.3-2.6 12.9-3 7.3-4.6 10.6-11.8 9.3-20.3 0-.3-.1-.6-.1-.7l.5-.5c5.4-4.7 8.4-8.9 10.2-14.4.9-2.8 1.7-5.8 1-9.2 0 0-.7-3-2.2-5.4 6.2-2.7 8.4-12.8 8.8-17.1.3-3.5-.6-6-1.4-8.6-.3-.9-.6-1.8-.9-2.8-.3-1.1-.3-1.2.6-2.4-.1-.4.3-.9.7-1.6z" fill="#313344"/>
  <path class="st2" d="M107.2 48.1c.1-.8 0-1.5 0-2.3 0-.3-.1-.8 0-1l-.4-.2c-1.8-.9-3.8-1-5.4-.5-1.6.5-2.7 1.5-3.8 2.5-4.3 4.3-6.5 9.4-8.5 14.4-1.3 3.2-2.7 6.6-4.7 9.6l-.1.2c-2.2 3.4-3.6 5.6-7.5 5.6-1.9 0-3.6-.7-4.6-2-1-1.2-1.4-2.7-1.1-4.5.7-4.3 3.1-8.5 5.3-12.5.4-.8.9-1.5 1.3-2.3 1.1-2 2.3-4 3.4-5.9 3.8-6.3 7.3-12.3 9-19.7.7-3 .1-5.8-1.6-7.4-1.6-1.6-4.1-2.1-7-1.4-6.3 1.5-8.7 6.2-10.8 10.4-1.7 3.3-3.2 6.7-4.7 10-.9 2.1-1.8 4.2-2.8 6.2l-.4.8c-3.5 7.5-7.5 16-15.2 19.9-1.6.8-3.1.8-4.3-.1-1.7-1.2-2.7-3.7-2.5-6.1.4-3.2 2.2-5.9 4.2-8.6.7-.9 1.3-1.8 1.9-2.8 3.6-5.7 4.9-14.3.4-19.9-.5-.6-1.4-.7-2-.2-.6.5-.7 1.4-.2 2 3.6 4.5 2.4 11.8-.6 16.5l-1.8 2.7c-2.1 3-4.3 6-4.7 10-.4 3.4 1.1 7 3.7 8.8 2.2 1.5 4.7 1.6 7.3.3 8.6-4.4 12.8-13.4 16.5-21.3l.4-.8c1-2.1 1.9-4.2 2.8-6.3 1.4-3.3 2.9-6.7 4.6-9.9 2.4-4.6 4.3-7.7 8.9-8.9 1.9-.4 3.4-.2 4.3.7 1 1 1.3 2.7.8 4.7-1.6 7-5 12.8-8.7 18.9-1.2 2-2.4 4-3.5 6-.4.7-.8 1.5-1.3 2.2-2.4 4.2-4.9 8.6-5.7 13.4-.4 2.6.2 5 1.7 6.8 1.6 1.9 4 3 6.8 3h.1c5.3 0 7.5-3.4 9.8-6.9l.1-.2c2.1-3.3 3.6-6.7 5-10.1 2.1-4.9 4-9.6 7.9-13.5.8-.8 1.6-1.5 2.6-1.8 1-.3 2.2-.1 3.2.4.4.2 1.3.8 1.7 1.2.2.3.2 0 .2-.1z"/>
  <circle class="st2" cx="46.4" cy="31.8" r="3.3"/>
  <path class="st3" d="M23.6 70c-3.2-1.2-7.3-1.4-10.7-.6.1.7.1 1.5.2 2.2v.2l-1.2.9c3-1.2 7.4-1.2 10.6 0 1.5.6 3.5 1.8 4.2 4 1.4 4.5-.5 10.7-2.3 16.2-.8 2.4-1.5 4.7-1.9 6.8-1.9 9.4-2.9 17.9-3.1 26-.2 9.5-.1 19.7 2.6 29.6.2.6.8 1.1 1.4 1.1.1 0 .3 0 .4-.1.8-.2 1.2-1 1-1.8-2.6-9.6-2.7-19.5-2.5-28.8.1-7.9 1.1-16.3 3-25.5.4-1.9 1.1-4.2 1.8-6.5 1.9-5.9 4-12.5 2.3-17.9-.7-2.6-2.7-4.6-5.8-5.8z"/>
  <circle class="st3" cx="23.5" cy="154.8" r="3.3"/>
  <path class="st2" d="M81.3 224.2c-1.8 0-3.5-.4-5.1-1-13.3-4.1-23.9-13.8-32.5-22.7-9.5-9.9-15.4-19.8-17.4-29.7-.2-.8.3-1.6 1.1-1.7.8-.2 1.6.3 1.7 1.1 1.9 9.3 7.5 18.8 16.6 28.2 8.4 8.6 18.6 18 31.3 21.9 1.6.5 3.3.9 4.9.8 1.3-.1 5.5-.7 6.9-4 1.5-3.4-.8-5.1-4.7-7.6-5.2-3.4-10.8-7.1-16.2-11.1-7.1-5.3-13.8-11.4-20-18.4-6.6-7.4-9-13.7-6.9-18.8 2-4.7 7.2-7.6 12.7-7 4.8.5 8.8 4.8 12 8.2.4.4.8.9 1.2 1.3.6.6.5 1.5 0 2.1-.6.6-1.5.5-2.1 0-.4-.4-.8-.8-1.2-1.3-2.9-3.1-6.5-6.9-10.2-7.3-4.2-.4-8.2 1.7-9.7 5.3-1.6 3.9.6 9.3 6.3 15.8 6.1 6.8 12.7 12.8 19.6 18 5.3 3.9 10.9 7.6 16.1 11 3.5 2.3 8.3 5.4 5.7 11.2-1.4 3.3-4.9 5.4-9.4 5.8-.1-.2-.4-.1-.7-.1z"/>
  <circle class="st2" cx="27.8" cy="170.7" r="3.3"/>
  <path class="st3" d="M91.9 175.1l-.4-.4c-.6-.6-1.4-1.3-2.5-2.2-3.7-3.2-11.3-10-10.6-13.8.1-.4.3-1.7 3.1-2.8 3.1-1.2 5.8 1.8 8.7 5.5l1.4 1.7c4.4 5.1 8.1 8.6 15.3 10.6v-3c-5.9-1.8-9.1-4.9-13.1-9.5-.4-.5-.9-1-1.3-1.6-2.7-3.3-6.7-8.4-12-6.4-2.9 1.1-4.5 2.8-4.9 4.9-.9 5.1 5.2 10.9 11.6 16.5 1 .9 1.8 1.6 2.3 2.1l.4.4c2.7 2.7 5.9 5.8 6 9.3.1 1.7-.7 3.4-2.1 4.6a8.08 8.08 0 0 1-6.3 1.9c-4.3-.6-8.2-3.5-12-6.2-.7-.5-1.4-1.1-2.1-1.5-4.3-3.1-8.4-7-13.1-12.8-.5-.6-1.4-.7-2-.2-.6.5-.7 1.4-.2 2 4.9 6 9.1 10.1 13.7 13.3l2.1 1.5c3.9 2.8 8.2 6 13.3 6.8.5.1 1 .1 1.4.1 2.6 0 5.2-1 7.2-2.7 2.1-1.8 3.1-4.3 3.1-6.9-.3-4.6-4-8.3-7-11.2z"/>
  <circle class="st3" cx="59.3" cy="173.4" r="3.3"/>
  <path class="st2" d="M117.7 134.4c0 6.3-1.7 11.1-5.1 14.4-3.4 3.3-8.1 5-14 5-3.1 0-5.8-.4-8.3-1.3-2.5-.8-4.6-2.1-6.4-3.7-1.8-1.6-3.2-3.7-4.2-6.1-1-2.4-1.5-5.2-1.5-8.4v-5.7h11.4v5.7c0 2.7.7 4.8 2.3 6.4 1.5 1.5 3.6 2.3 6.3 2.3 2.5 0 4.5-.7 5.9-2.3 1.4-1.5 2.1-3.6 2.1-6.4v-31.7H100V91.9h22.9v10.7h-5.2v31.8zM162.8 110.5c0-2.4-.9-4.5-2.8-6.3-1.9-1.8-4.5-2.7-7.9-2.7-2.9 0-5.2.6-6.8 1.8a5.55 5.55 0 0 0-2.5 4.8c0 1 .2 2 .6 2.8.4.8 1.1 1.6 2.1 2.3 1 .7 2.3 1.3 4 1.8 1.6.5 3.7 1 6.3 1.5 6.4 1.2 11.2 3.1 14.6 5.8 3.3 2.7 5 6.7 5 12v1c0 2.8-.5 5.4-1.5 7.7s-2.5 4.2-4.4 5.8c-1.9 1.6-4.2 2.9-6.9 3.7-2.7.9-5.8 1.3-9.2 1.3-4 0-7.5-.6-10.5-1.7s-5.6-2.7-7.6-4.7-3.6-4.3-4.6-7c-1-2.7-1.6-5.6-1.6-8.8V129h11.4v2.1c0 3.6 1.1 6.5 3.2 8.7 2.1 2.2 5.4 3.2 9.8 3.2 3.5 0 6-.7 7.7-2.3 1.7-1.5 2.5-3.3 2.5-5.4 0-1-.2-1.9-.5-2.8-.3-.9-1-1.7-1.8-2.4-.9-.7-2.1-1.4-3.6-1.9a29 29 0 0 0-5.7-1.5c-3.1-.5-5.9-1.2-8.4-2s-4.8-1.9-6.6-3.3c-1.9-1.4-3.3-3.1-4.4-5.2-1-2.1-1.6-4.6-1.6-7.6v-.5c0-2.5.5-4.8 1.5-6.9 1-2.1 2.4-3.9 4.2-5.5 1.8-1.6 4-2.8 6.6-3.6 2.6-.9 5.4-1.3 8.6-1.3 3.6 0 6.8.5 9.5 1.5 2.8 1 5.1 2.4 7 4.1 1.9 1.7 3.3 3.7 4.2 6 1 2.3 1.4 4.6 1.4 7.1v3.1h-11.4v-2.1z"/>
  <path class="st3" d="M78.2 82.8h11.4v39.5H78.2V82.8zM62.4 113.9h-11l-1.9 8.4H38.7l12-39.5h12.6l12 39.5H64.4l-2-8.4zm-1.9-8.1l-.7-2.7c-.5-2.1-1.1-4.3-1.6-6.8l-1.3-5.7h-.2l-.4 1.7c-.9 4.5-1.7 8.1-2.4 10.8l-.7 2.7h7.3z"/>
  <image width="40" height="40" xlink:href="FD6E0DE726FEEC99.png" transform="matrix(.24 0 0 .24 145.86 139.7)" overflow="visible" opacity=".06"/>
  <path class="st2" d="M152.3 144.4c0 .7-.4 1.3-1.1 1.6-.9.4-1.9-.1-2.2-.9-.4-.9.1-1.9.9-2.2.9-.4 1.9.1 2.2.9.1.2.2.4.2.6zm-1.3 1c.6-.2.9-.9.6-1.5-.2-.6-.9-.9-1.5-.6-.6.2-.9.9-.6 1.5.2.6.9.9 1.5.6z"/>
  <image width="35" height="35" xlink:href="FD6E0DE726FEEC9B.png" transform="matrix(.24 0 0 .24 174.54 180.65)" overflow="visible" opacity=".06"/>
  <path class="st3" d="M179.8 184.8c0 .4-.3.9-.7 1-.6.2-1.2 0-1.4-.6-.2-.6 0-1.2.6-1.4.6-.2 1.2 0 1.4.6 0 .1.1.2.1.4zm-.9.6c.4-.2.6-.6.4-1-.2-.4-.6-.6-1-.4-.4.2-.6.6-.4 1 .2.4.7.6 1 .4z"/>
  <g>
    <image width="35" height="35" xlink:href="FD6E0DE726FEEC9E.png" transform="matrix(.24 0 0 .24 120.15 141.07)" overflow="visible" opacity=".06"/>
    <path class="st3" d="M125.4 145.2c0 .4-.3.9-.7 1-.6.2-1.2 0-1.4-.6-.2-.6 0-1.2.6-1.4.6-.2 1.2 0 1.4.6 0 .1.1.2.1.4zm-.9.7c.4-.2.6-.6.4-1-.2-.4-.6-.6-1-.4-.4.2-.6.6-.4 1 .2.3.7.5 1 .4z"/>
  </g>
  <g>
    <image width="47" height="47" xlink:href="FD6E0DE726FEEC9F.png" transform="matrix(.24 0 0 .24 124.66 179.17)" overflow="visible" opacity=".06"/>
    <path class="st3" d="M132.8 184.8c0 1-.6 2-1.6 2.4-1.3.5-2.8-.1-3.4-1.4-.5-1.3.1-2.8 1.4-3.4 1.3-.5 2.8.1 3.4 1.4.2.3.2.6.2 1zm-1.9 1.6c.9-.4 1.3-1.4.9-2.2-.4-.9-1.4-1.3-2.2-.9-.9.4-1.3 1.4-.9 2.2.3.8 1.3 1.2 2.2.9z"/>
  </g>
  <g>
    <image width="57" height="57" xlink:href="FD6E0DE726FEEC9A.png" transform="matrix(.24 0 0 .24 159 61.85)" overflow="visible" opacity=".06"/>
    <path class="st2" d="M169.6 68.7c0 1.5-.9 2.9-2.4 3.5-1.9.8-4.2-.1-5-2.1-.8-1.9.1-4.2 2.1-5 1.9-.8 4.2.1 5 2.1.2.5.3 1 .3 1.5zm-2.8 2.3c1.3-.5 1.9-2 1.4-3.3-.5-1.3-2-1.9-3.3-1.4-1.3.5-1.9 2-1.4 3.3.5 1.3 2 1.9 3.3 1.4z"/>
  </g>
  <g>
    <image width="57" height="57" xlink:href="FD6E0DE726FEEC95.png" transform="matrix(.24 0 0 .24 147.39 205.74)" overflow="visible" opacity=".06"/>
    <path class="st2" d="M158 212.5c0 1.5-.9 2.9-2.4 3.5-1.9.8-4.2-.1-5-2.1-.8-1.9.1-4.2 2.1-5 1.9-.8 4.2.1 5 2.1.2.6.3 1.1.3 1.5zm-2.8 2.4c1.3-.5 1.9-2 1.4-3.3-.5-1.3-2-1.9-3.3-1.4-1.3.5-1.9 2-1.4 3.3.5 1.3 2 1.9 3.3 1.4z"/>
  </g>
  <g>
    <image width="47" height="47" xlink:href="FD6E0DE726FEEC96.png" transform="matrix(.24 0 0 .24 120.21 17.53)" overflow="visible" opacity=".06"/>
    <path class="st3" d="M128.3 23.1a2.54 2.54 0 0 1-4.9 1c-.5-1.3.1-2.8 1.4-3.3 1.3-.5 2.8.1 3.3 1.4.1.2.2.5.2.9zm-1.9 1.5c.9-.4 1.3-1.3.9-2.2-.4-.9-1.3-1.3-2.2-.9-.9.4-1.3 1.3-.9 2.2.3.9 1.3 1.3 2.2.9z"/>
  </g>
  <g>
    <image width="47" height="47" xlink:href="FD6E0DE726FEEC97.png" transform="matrix(.24 0 0 .24 127.76 46.97)" overflow="visible" opacity=".06"/>
    <path class="st2" d="M135.8 52.5a2.54 2.54 0 0 1-4.9 1c-.5-1.3.1-2.8 1.4-3.3 1.3-.5 2.8.1 3.3 1.4.2.3.2.6.2.9zm-1.9 1.6c.9-.4 1.3-1.3.9-2.2-.4-.9-1.3-1.3-2.2-.9-.9.4-1.3 1.3-.9 2.2.4.8 1.4 1.2 2.2.9z"/>
  </g>
  <g>
    <image width="56" height="56" xlink:href="FD6E0DE726FEECA9.png" transform="matrix(.24 0 0 .24 187.37 124.79)" overflow="visible" opacity=".06"/>
    <path class="st3" d="M197.6 131.4c0 1.4-.9 2.8-2.3 3.4-1.8.8-4-.1-4.7-2-.8-1.8.1-4 2-4.7 1.8-.8 4 .1 4.7 2 .2.4.3.8.3 1.3zm-2.7 2.2a2.4 2.4 0 0 0 1.3-3.1 2.4 2.4 0 0 0-3.1-1.3 2.4 2.4 0 0 0-1.3 3.1 2.4 2.4 0 0 0 3.1 1.3z"/>
  </g>
  <g>
    <image width="70" height="73" xlink:href="A0E80268A2D83222.png" transform="matrix(.24 0 0 .24 112.17 198.22)" overflow="visible" opacity=".06"/>
    <path class="st2" d="M125.8 206.7c0 .8-.4 1.6-1.1 2.1l-5.4 3.4c-.7.5-1.7.5-2.4.1-.8-.4-1.3-1.2-1.3-2.1l-.3-6.4c0-.9.4-1.7 1.1-2.2.7-.5 1.7-.5 2.4-.1l5.7 3c.8.4 1.3 1.2 1.3 2.1v.1zm-2 .8c.4-.3.5-.7.4-.8 0-.2-.1-.6-.5-.8l-5.7-3c-.4-.2-.8 0-.9 0-.1.1-.4.3-.4.8l.3 6.4c0 .5.4.7.5.8.1.1.5.2.9 0l5.4-3.4z"/>
  </g>
  <g>
    <image width="58" height="59" xlink:href="A0E80268A2D83225.png" transform="matrix(.24 0 0 .24 150.12 171.17)" overflow="visible" opacity=".06"/>
    <path class="st2" d="M159.2 174.3c.6.2.9.7 1 1.3l.7 4.6c.1.6-.1 1.2-.6 1.6-.5.4-1.1.5-1.7.3l-4.3-1.7c-.6-.2-1-.7-1.1-1.4-.1-.6.1-1.2.6-1.6l3.6-2.9c.5-.3 1.1-.4 1.8-.2-.1 0 0 0 0 0zm0 1.5c-.1-.3-.3-.5-.4-.5-.1 0-.4-.1-.7.1l-3.6 2.9c-.3.2-.3.5-.2.6 0 .1.1.4.4.5l4.3 1.7c.3.1.6 0 .7-.1.1-.1.3-.3.2-.6l-.7-4.6z"/>
  </g>
  <g>
    <image width="58" height="59" xlink:href="A0E80268A2D83226.png" transform="matrix(.24 0 0 .24 150.5 32.46)" overflow="visible" opacity=".06"/>
    <path class="st2" d="M154.2 35.8c.5-.4 1.1-.5 1.7-.2l4.3 1.6c.6.2 1 .7 1.1 1.4.1.6-.1 1.2-.6 1.6l-3.6 2.9c-.5.4-1.1.5-1.7.3-.6-.2-1-.7-1.1-1.4l-.7-4.5c-.2-.6.1-1.2.6-1.7zm1.3.8c-.3-.1-.6 0-.7.1-.1.1-.3.3-.2.6l.7 4.5c.1.3.3.5.4.5.1 0 .4.1.7-.1l3.6-2.9c.3-.2.3-.5.2-.6 0-.1-.1-.4-.4-.5l-4.3-1.6z"/>
  </g>
  <g>
    <image width="59" height="59" xlink:href="A0E80268A2D83224.png" transform="matrix(.24 0 0 .24 180.6 84.8)" overflow="visible" opacity=".06"/>
    <path class="st2" d="M183.7 90.2c.2-.6.6-1 1.2-1.2l4.4-1.2c.6-.2 1.2 0 1.7.5.4.4.6 1.1.5 1.7l-1.2 4.4c-.2.6-.6 1.1-1.2 1.2-.6.2-1.2 0-1.7-.5l-3.3-3.3c-.4-.3-.6-.9-.4-1.6 0 .1 0 .1 0 0zm1.5-.1c-.3.1-.5.4-.5.5 0 .1-.1.4.2.7l3.3 3.3c.3.2.5.2.7.2.1 0 .4-.1.5-.5l1.2-4.4c.1-.3-.1-.6-.2-.7-.1-.1-.3-.3-.7-.2l-4.5 1.1z"/>
  </g>
  <g>
    <image width="48" height="50" xlink:href="A0E80268A2D83223.png" transform="matrix(.24 0 0 .24 147.42 73.53)" overflow="visible" opacity=".06"/>
    <path class="st3" d="M155.3 76.8c.4.2.6.6.5 1.1l-.1 3.3c0 .5-.3.8-.7 1.1-.4.2-.9.2-1.2-.1l-2.8-1.8c-.4-.3-.6-.7-.6-1.1 0-.5.3-.8.7-1.1l2.9-1.5c.4-.2.9-.2 1.3.1 0-.1 0-.1 0 0zm-.2 1c0-.3-.1-.4-.2-.4s-.3-.1-.5 0l-2.9 1.5c-.2.1-.3.3-.3.4 0 .1 0 .3.2.4l2.8 1.8c.2.1.4.1.5 0 .1 0 .2-.2.3-.4l.1-3.3z"/>
  </g>
  <g>
    <image width="49" height="49" xlink:href="A0E80268A2D8323D.png" transform="matrix(.24 0 0 .24 180.22 155.65)" overflow="visible" opacity=".06"/>
    <path class="st2" d="M185.1 158.7c.4-.1.8 0 1.1.4l2.3 2.4c.3.3.4.8.3 1.2-.1.4-.5.8-.9.9l-3.2.8c-.4.1-.9 0-1.2-.4-.3-.3-.4-.8-.3-1.2l.9-3.1c.2-.6.6-.9 1-1zm.6.9c-.2-.2-.4-.2-.5-.1-.1 0-.3.1-.3.3l-.9 3.1c-.1.2.1.4.1.5.1.1.2.2.5.1l3.2-.8c.2-.1.3-.3.3-.3 0-.1.1-.3-.1-.5l-2.3-2.3z"/>
  </g>
  <g>
    <image width="50" height="48" xlink:href="A0E80268A2D8323E.png" transform="matrix(.24 0 0 .24 117.48 162.2)" overflow="visible" opacity=".06"/>
    <path class="st2" d="M120.7 165.7c.3-.3.7-.5 1.1-.5l3.3.3c.4 0 .8.3 1 .7.2.4.1.9-.1 1.2l-1.9 2.7c-.3.4-.7.6-1.1.5-.4 0-.8-.3-1-.7l-1.3-3c-.3-.3-.2-.8 0-1.2zm1.1.3c-.2 0-.4.1-.4.2s-.2.3 0 .5l1.3 3c.1.2.3.3.4.3.1 0 .3 0 .4-.2l1.9-2.7c.1-.2.1-.4.1-.5 0-.1-.1-.3-.4-.3l-3.3-.3z"/>
  </g>
  <g>
    <image width="44" height="44" xlink:href="A0E80268A2D8323C.png" transform="matrix(.24 0 0 .24 129.65 80.42)" overflow="visible" opacity=".06"/>
    <path class="st2" d="M134.2 83.4c.3-.1.7 0 .9.3l1.8 1.9c.2.3.3.6.2 1-.1.3-.4.6-.7.7l-2.5.6c-.4.1-.7 0-1-.3-.2-.3-.3-.6-.2-1l.7-2.5c.1-.3.4-.6.8-.7zm.5.7c-.1-.1-.3-.1-.4-.1-.1 0-.2.1-.3.3l-.7 2.5c-.1.2 0 .3.1.4 0 0 .1.2.4.1l2.5-.6c.2 0 .3-.2.3-.3 0-.1 0-.2-.1-.4l-1.8-1.9z"/>
  </g>
</svg>
